<svg xmlns="http://www.w3.org/2000/svg" xmlns:xlink="http://www.w3.org/1999/xlink" width="115" height="115" viewBox="0 0 115 115"><defs><clipPath id="b"><rect width="115" height="115"/></clipPath></defs><g id="a" clip-path="url(#b)"><rect width="115" height="115" fill="#fff"/><path d="M5.142,0h98.717A5.142,5.142,0,0,1,109,5.142v98.717A5.142,5.142,0,0,1,103.858,109H5.142A5.142,5.142,0,0,1,0,103.858V5.142A5.142,5.142,0,0,1,5.142,0Z" transform="translate(3 3)" fill="#f39c12"/><g transform="translate(-347 -717)"><g transform="translate(-130)"><circle cx="4" cy="4" r="4" transform="translate(484 725)" fill="#fff"/><circle cx="4" cy="4" r="4" transform="translate(484 816)" fill="#fff"/><circle cx="4" cy="4" r="4" transform="translate(484 777)" fill="#fff"/><circle cx="4" cy="4" r="4" transform="translate(484 751)" fill="#fff"/><circle cx="4" cy="4" r="4" transform="translate(484 764)" fill="#fff"/><circle cx="4" cy="4" r="4" transform="translate(484 790)" fill="#fff"/><circle cx="4" cy="4" r="4" transform="translate(497 764)" fill="#fff"/><rect width="86" height="8" rx="4" transform="translate(497 725)" fill="#fff"/><rect width="86" height="8" rx="4" transform="translate(497 816)" fill="#fff"/><rect width="86" height="8" rx="4" transform="translate(484 803)" fill="#fff"/><rect width="86" height="8" rx="4" transform="translate(497 777)" fill="#fff"/><rect width="86" height="8" rx="4" transform="translate(497 751)" fill="#fff"/><rect width="73" height="8" rx="4" transform="translate(497 738)" fill="#fff"/><circle cx="4" cy="4" r="4" transform="translate(484 738)" fill="#fff"/><circle cx="4" cy="4" r="4" transform="translate(575 738)" fill="#fff"/><circle cx="4" cy="4" r="4" transform="translate(575 803)" fill="#fff"/><circle cx="4" cy="4" r="4" transform="translate(523 764)" fill="#fff"/><circle cx="4" cy="4" r="4" transform="translate(510 790)" fill="#fff"/><circle cx="4" cy="4" r="4" transform="translate(497 790)" fill="#fff"/><circle cx="4" cy="4" r="4" transform="translate(510 764)" fill="#fff"/></g></g></g></svg>