<?xml version="1.0" standalone="no"?>
<!DOCTYPE svg PUBLIC "-//W3C//DTD SVG 20010904//EN"
 "http://www.w3.org/TR/2001/REC-SVG-20010904/DTD/svg10.dtd">
<svg version="1.0" xmlns="http://www.w3.org/2000/svg"
 width="301.000000pt" height="301.000000pt" viewBox="0 0 301.000000 301.000000"
 preserveAspectRatio="xMidYMid meet">
<metadata>
Created by potrace 1.15, written by Peter Selinger 2001-2017
</metadata>
<g transform="translate(0.000000,301.000000) scale(0.100000,-0.100000)"
fill="#000000" stroke="none">
<path d="M1363 2973 c-37 -5 -38 -10 -26 -135 5 -57 9 -68 24 -68 16 0 19 8
19 45 0 57 17 59 63 5 20 -24 43 -40 55 -40 30 0 28 10 -10 52 l-33 35 23 17
c27 21 28 50 2 76 -20 20 -42 22 -117 13z"/>
<path d="M1625 2966 c-36 -15 -55 -52 -55 -104 0 -49 22 -79 69 -93 51 -15 90
3 115 55 43 89 -40 182 -129 142z"/>
<path d="M1845 2928 c-17 -53 -45 -158 -45 -172 0 -9 7 -16 15 -16 10 0 21 21
32 61 19 68 20 67 48 -32 11 -40 22 -58 35 -62 11 -3 20 -4 20 -3 0 2 13 46
29 99 27 91 28 96 10 100 -16 4 -22 -4 -36 -54 -9 -32 -19 -56 -24 -54 -4 3
-13 29 -19 57 -7 29 -17 61 -22 71 -10 20 -37 23 -43 5z"/>
<path d="M927 2868 c-26 -12 -46 -26 -44 -32 3 -6 20 -48 38 -93 30 -76 49
-98 64 -73 3 5 -1 25 -9 44 -23 54 5 63 67 20 25 -17 45 -23 58 -19 19 6 19 8
4 25 -9 10 -30 24 -46 30 -27 12 -28 14 -14 30 20 22 19 53 -3 73 -24 22 -56
20 -115 -5z"/>
<path d="M2162 2774 c-26 -18 -52 -65 -52 -94 0 -64 69 -114 124 -89 29 14 32
22 13 37 -8 7 -18 7 -27 2 -38 -24 -75 7 -66 54 7 35 42 76 66 76 18 0 43 -25
53 -52 9 -26 37 -22 37 5 -1 62 -93 100 -148 61z"/>
<path d="M721 2761 c-13 -8 -13 -22 3 -103 9 -52 21 -100 26 -107 12 -21 30
-3 30 30 0 22 8 34 32 49 29 17 35 18 54 5 17 -11 25 -11 38 -2 15 11 7 20
-63 70 -92 66 -101 70 -120 58z"/>
<path d="M589 2661 c-24 -10 -89 -65 -89 -76 0 -5 29 -41 64 -80 52 -56 67
-68 77 -58 10 10 9 18 -8 41 l-21 28 29 32 c32 36 36 58 14 89 -16 23 -43 33
-66 24z"/>
<path d="M2364 2635 c-15 -23 -15 -27 11 -71 27 -46 28 -74 2 -74 -22 0 -50
37 -44 59 3 12 -1 22 -10 25 -45 18 -45 -44 1 -90 37 -37 60 -42 94 -18 28 19
29 59 2 99 -23 35 -26 65 -6 65 18 0 47 -40 39 -53 -5 -9 14 -27 29 -27 13 0
14 36 1 62 -26 53 -91 65 -119 23z"/>
<path d="M364 2457 c-168 -199 -284 -444 -330 -697 -24 -130 -24 -390 -1 -520
83 -452 367 -836 779 -1055 74 -39 87 -43 92 -29 4 9 5 18 4 19 -2 1 -46 25
-99 54 -260 142 -478 368 -609 629 -49 99 -102 253 -127 372 -25 120 -25 420
0 540 54 253 176 504 328 673 45 51 50 60 38 73 -13 12 -23 4 -75 -59z"/>
<path d="M2571 2516 c-11 -13 -5 -25 39 -73 151 -169 273 -420 327 -673 25
-120 25 -420 0 -540 -93 -436 -355 -793 -736 -1001 -53 -29 -97 -53 -99 -54
-1 -1 0 -10 4 -19 5 -14 18 -10 92 29 412 219 696 603 779 1055 23 130 23 390
-1 520 -45 246 -164 501 -319 685 -79 93 -72 88 -86 71z"/>
<path d="M457 2416 c-163 -189 -271 -405 -324 -648 -26 -119 -25 -419 1 -538
54 -247 160 -459 327 -651 98 -112 280 -248 417 -314 52 -24 65 -27 72 -15 7
11 -13 26 -86 65 -304 161 -542 441 -650 762 -89 266 -89 580 0 846 55 163
159 344 266 460 46 51 51 60 39 73 -13 12 -21 7 -62 -40z"/>
<path d="M2491 2456 c-11 -14 -6 -24 40 -73 106 -116 210 -298 265 -460 89
-266 89 -580 0 -846 -108 -321 -346 -601 -650 -762 -73 -39 -93 -54 -86 -65
18 -29 217 86 362 207 226 191 386 463 454 773 24 106 27 407 5 515 -48 245
-168 490 -334 678 -38 43 -45 47 -56 33z"/>
<path d="M515 2339 c-295 -347 -385 -806 -245 -1244 84 -261 273 -509 505
-664 130 -86 203 -120 215 -101 7 11 -11 24 -73 58 -340 181 -573 493 -654
875 -21 100 -23 359 -4 457 44 221 156 453 296 608 29 32 45 58 41 67 -3 8 -9
15 -13 15 -4 0 -35 -32 -68 -71z"/>
<path d="M2414 2396 c-4 -10 11 -34 41 -68 140 -155 252 -387 296 -608 19 -98
17 -357 -4 -457 -81 -382 -314 -694 -654 -875 -62 -34 -80 -47 -73 -58 12 -19
85 15 215 101 474 315 681 912 508 1463 -50 159 -144 327 -253 451 -60 68 -68
73 -76 51z"/>
<path d="M614 2274 c20 -19 20 -28 0 -45 -12 -10 -20 -10 -35 -1 -19 12 -19 5
-19 -293 0 -302 0 -305 20 -293 16 10 23 10 36 -4 9 -9 14 -24 11 -32 -8 -19
-53 -21 -60 -3 -3 6 -6 -3 -6 -21 -1 -30 1 -31 19 -20 16 10 22 10 35 -3 9 -9
13 -23 9 -32 -7 -20 -50 -23 -57 -4 -3 6 -6 -4 -6 -23 -1 -26 2 -31 11 -22 28
28 66 3 52 -33 -7 -18 -35 -20 -52 -3 -9 9 -12 4 -11 -22 0 -19 3 -29 6 -22 7
18 50 15 57 -5 4 -9 0 -23 -9 -32 -13 -13 -19 -13 -35 -3 -18 11 -20 10 -19
-20 0 -18 3 -27 6 -20 7 17 52 15 60 -4 3 -8 -2 -23 -11 -32 -13 -14 -20 -14
-36 -4 -18 11 -20 10 -19 -20 0 -18 3 -27 6 -20 7 17 52 15 60 -4 3 -8 -2 -23
-11 -32 -13 -14 -20 -14 -36 -4 -18 11 -20 10 -20 -19 0 -28 1 -29 16 -15 12
12 20 13 35 6 23 -13 25 -33 3 -51 -12 -10 -20 -10 -35 -1 -17 11 -19 9 -19
-13 0 -22 2 -24 19 -13 37 23 68 -25 35 -53 -12 -10 -20 -10 -35 -1 -17 11
-19 9 -19 -13 0 -22 2 -24 19 -13 37 23 68 -25 35 -53 -12 -10 -20 -10 -35 -1
-17 11 -19 9 -19 -13 0 -22 2 -24 19 -13 15 9 23 9 35 -1 22 -18 20 -38 -3
-51 -15 -7 -23 -6 -35 6 -15 14 -16 13 -16 -15 0 -28 2 -30 19 -19 15 9 23 9
35 -1 22 -18 20 -38 -3 -51 -15 -7 -23 -6 -35 6 -15 14 -16 13 -16 -15 0 -28
2 -30 19 -19 15 9 23 9 35 -1 21 -18 20 -38 -1 -50 -15 -8 -11 -10 20 -11 35
0 37 1 22 16 -18 19 -16 33 7 48 12 7 21 6 32 -3 20 -17 20 -26 0 -45 -14 -15
-12 -16 21 -16 33 0 35 1 21 16 -20 19 -20 28 0 45 11 9 20 10 32 3 23 -15 25
-29 7 -48 -15 -15 -13 -16 21 -16 34 0 36 1 19 14 -20 15 -15 43 10 52 15 6
45 -11 45 -27 0 -4 -7 -15 -16 -23 -14 -15 -12 -16 22 -16 34 0 36 1 19 14
-20 15 -15 43 10 52 15 6 45 -11 45 -27 0 -4 -7 -15 -16 -23 -14 -15 13 -16
318 -14 l333 3 3 368 c2 357 2 367 -17 356 -24 -16 -51 -5 -51 21 0 26 27 37
51 21 17 -10 19 -8 19 19 0 27 -2 29 -19 19 -24 -16 -51 -5 -51 21 0 26 27 37
51 21 17 -10 19 -8 19 19 0 27 -2 29 -19 19 -24 -16 -51 -5 -51 21 0 26 27 37
51 21 17 -10 19 -8 19 19 0 27 -2 29 -19 19 -24 -16 -51 -5 -51 21 0 26 27 37
51 21 17 -10 19 -8 19 20 0 31 0 32 -20 14 -16 -15 -22 -15 -35 -5 -8 7 -15
21 -15 31 0 22 36 35 56 18 13 -10 14 19 12 237 l-3 249 -254 3 c-243 2 -254
2 -238 -15 19 -22 6 -53 -24 -53 -25 0 -36 27 -20 51 10 17 8 19 -20 19 -31 0
-32 0 -14 -20 15 -16 15 -22 5 -35 -18 -22 -48 -18 -56 7 -4 15 -1 25 12 35
16 12 14 13 -20 13 -34 0 -36 -1 -22 -16 19 -19 20 -26 4 -42 -19 -19 -46 -14
-54 10 -4 15 -1 25 12 35 16 12 14 13 -20 13 -34 0 -36 -1 -22 -16 9 -8 16
-19 16 -23 0 -16 -30 -33 -45 -27 -25 9 -30 37 -10 52 17 13 15 14 -19 14 -34
0 -36 -1 -21 -16 18 -19 16 -33 -7 -48 -12 -7 -21 -6 -32 3 -20 17 -20 26 0
45 14 15 12 16 -21 16 -34 0 -35 -1 -20 -16 18 -19 16 -33 -7 -48 -12 -7 -21
-6 -32 3 -20 17 -20 26 0 45 14 15 12 16 -21 16 -33 0 -35 -1 -21 -16z"/>
<path d="M1030 223 c-27 -79 -31 -97 -19 -104 22 -14 25 -11 36 24 6 20 15 31
24 29 78 -19 110 -8 123 44 10 39 -9 61 -73 82 l-58 20 -33 -95z"/>
<path d="M1861 289 c-35 -10 -65 -20 -68 -22 -2 -3 8 -48 23 -101 22 -75 31
-95 43 -92 9 3 42 12 74 21 51 15 68 30 52 47 -3 3 -29 -1 -57 -9 -42 -13 -52
-13 -59 -2 -17 27 -8 39 36 51 32 9 45 17 45 30 0 19 -20 18 -76 -3 -25 -9
-34 -3 -34 22 0 12 14 21 50 30 45 11 63 30 43 42 -5 2 -37 -4 -72 -14z"/>
<path d="M1287 246 c-3 -8 -9 -49 -13 -89 -6 -69 -5 -75 17 -95 29 -28 99 -30
122 -4 9 10 21 49 27 88 13 92 13 94 -9 94 -19 0 -20 -3 -36 -107 -8 -54 -27
-70 -61 -54 -25 11 -26 13 -18 74 4 34 8 71 8 82 1 23 -29 32 -37 11z"/>
<path d="M1667 185 c3 -36 4 -65 1 -65 -2 0 -24 27 -48 60 -32 45 -50 60 -68
60 -20 0 -23 -4 -18 -27 2 -16 8 -63 11 -105 6 -70 9 -78 27 -78 20 0 20 4 13
73 -3 39 -4 70 -2 67 3 -3 26 -33 51 -67 25 -35 49 -63 53 -63 28 1 34 19 28
81 -11 117 -14 129 -35 129 -18 0 -19 -5 -13 -65z"/>
</g>
</svg>
